<svg id="Layer_1" data-name="Layer 1" xmlns="http://www.w3.org/2000/svg" viewBox="0 0 231.741 333.619">
    <defs>
        <style>
            .cls-1 {
            fill: #070708;
            }

            .cls-2 {
            fill: #474a4d;
            }

            .cls-3 {
            fill: #9fa7aa;
            }

            .cls-4 {
            fill: #971f04;
            }

            .cls-5 {
            fill: #471504;
            }
        </style>
    </defs>
    <title>robot-cartoon-a</title>
    <g>
        <path class="cls-1"
              d="M151.348,325.772c-2.788,1.61-5.883,2.105-9.009,2.521-9.73,1.293-18.879-.761-27.646-4.861a35.69,35.69,0,0,1-8.557-6.046,7.111,7.111,0,0,1-2.061-4.475,45.307,45.307,0,0,1-.21-11.919,2.094,2.094,0,0,1,.254-1.033c.978-1.22.983-2.733,1.3-4.138a10.688,10.688,0,0,1,6.829-8.167,1.591,1.591,0,0,0,1.133-1.909c-.562-7.739-1.359-15.457-2.086-23.181-.548-5.815-.989-11.639-1.5-17.457-.58-6.625-1.165-13.249-1.873-19.863-.3-2.8-.438-2.289-2.763-2.438q-11.844-.759-23.712-.779-4.811-.016-9.621-.131a1.2,1.2,0,0,0-1.408,1.227c-.714,5.375-1.344,10.76-1.831,16.161-.668,7.4-1.287,14.8-1.94,22.2-.548,6.207-1.122,12.411-1.671,18.618-.3,3.4-.566,6.805-.861,10.207-.163,1.882-.173,1.906,1.582,2.69,3.82,1.707,5.736,4.814,6.48,8.784a7.28,7.28,0,0,0,1.071,3.192,4.6,4.6,0,0,1,.435,2.536,43.671,43.671,0,0,1-.431,11.016,8.156,8.156,0,0,1-2.914,4.9,43.339,43.339,0,0,1-20.189,9.4,45.819,45.819,0,0,1-20.4-.35,14.088,14.088,0,0,1-4.239-1.89,4.806,4.806,0,0,1-2.274-4.231q-.05-4.359-.206-8.717a17.378,17.378,0,0,1,3.955-11.281c.18-.239.371-.469.557-.7.51-.076.489-.593.736-.886a52.09,52.09,0,0,1,16.453-10.209,13.115,13.115,0,0,1,2.549-.844,1.27,1.27,0,0,0,1.11-1.391c.19-5,.362-10,.6-14.995.363-7.537.784-15.071,1.168-22.607q.462-9.062,1.13-18.111c.324-4.3.686-8.6,1.2-12.883.018-.149.038-.3.052-.447.123-1.363.121-1.328-1.218-1.376a41.827,41.827,0,0,1-4.475-.3,3.692,3.692,0,0,1-3.272-3.426q-.846-7.546-1.637-15.1-.991-9.565-1.927-19.135-.855-8.629-1.684-17.262c-.14-1.431-.291-2.86-.437-4.29a4.344,4.344,0,0,0-.158-1.93,4.8,4.8,0,0,0-.484,1.9c-1.482,5.243-2.642,10.558-3.6,15.92-1.562,8.711-2.215,17.52-2.9,26.327-.253,3.254-.464,6.51-.707,9.765a2.1,2.1,0,0,0,.924,2.014,19.809,19.809,0,0,1,6.269,7.726c-.078.4.2.589.458.787a54.765,54.765,0,0,1,4.688,22.326c0,.3-.016.6-.04.9-.25,3.156-.673,3.683-3.707,4.5a35.312,35.312,0,0,1-6.459,1.078c-1.532.121-2.269-.474-2.5-2.047-.617-4.146-1.108-8.31-1.955-12.42a63.852,63.852,0,0,0-2.939-10.06c-.287-.747-.643-1.031-1.479-.783a8.723,8.723,0,0,1-3.921.184,1.335,1.335,0,0,0-1.563.845,29.8,29.8,0,0,0-3.7,13c-.13,2.6.031,5.216-.256,7.814-.066.6-.109,1.2-.213,1.784a3.424,3.424,0,0,1-3.547,3.254,35.409,35.409,0,0,1-6.9-.289A3.359,3.359,0,0,1,.18,252.72v-2.34a8.751,8.751,0,0,0,.182-3.057,81.363,81.363,0,0,1,1.69-14.8A26.552,26.552,0,0,1,5.242,223.8c.844-1.325,1.756-2.767,3.145-3.381,1.646-.727,1.924-1.816,1.91-3.329-.073-7.586-.114-15.17.094-22.757a198.574,198.574,0,0,1,2.9-28.942,227.264,227.264,0,0,1,8.481-34.656,52.628,52.628,0,0,1,7.993-15.573c4.9-6.289,11.149-10.127,19.2-10.81a30.19,30.19,0,0,0,5.8-.6c5.979-1.707,11.954-3.432,17.782-5.617a7.862,7.862,0,0,1,2.071-.56c.984-.087,1.342-.453,1.295-1.455-.147-3.086-.006-6.17.046-9.254.012-.727-.3-1.013-1.015-1.04-1.167-.044-2.332-.154-3.5-.244-4.687-.365-9.366-.852-14.071-.943-2.487-.048-4.974-.076-7.457-.246-2.3-.157-3.154-1.1-2.91-3.251.287-2.53.613-5.056.925-7.583q1.05-8.52,2.1-17.039,1.038-8.385,2.083-16.769c.242-1.932.487-3.865.774-5.79.12-.808-.149-1.129-.953-1.018a4.524,4.524,0,0,1-.539.02c-3.565.061-7.131.173-10.7.163-2.194-.006-2.94-.95-2.78-3.118.163-2.211.257-4.427.45-6.635a46.826,46.826,0,0,1,.476-5.452A2.324,2.324,0,0,0,37.355,15a2.725,2.725,0,0,1-1.445-1.519,6.171,6.171,0,0,1-.053-4.647,11.694,11.694,0,0,1,3.891-4.962A5.157,5.157,0,0,1,47.72,6.881a8.438,8.438,0,0,1-.429,4.593,1.373,1.373,0,0,0-.546,1.057l-.021.014a3.372,3.372,0,0,0-.876,1.086,7.763,7.763,0,0,1-3.23,2.036c-.791.241-.971.69-.96,1.451.052,3.773-.028,7.545-.271,11.312-.089,1.374-.076,1.387,1.335,1.356,3.2-.071,6.4-.193,9.606-.212.89-.005,1.2-.317,1.309-1.151a128.637,128.637,0,0,1,2.283-12.986,2.128,2.128,0,0,0,.036-.978c-.534-2.411.1-3.9,2.313-5.02,3.915-1.988,7.927-3.794,11.783-5.89A28.018,28.018,0,0,1,82.611.342l2.3-.034c.5,0,1.016.218,1.485-.128h7.56c.528.337,1.1.126,1.657.14L97.93.339A220.368,220.368,0,0,1,128.71,3.8c.9.179,1.784.4,2.06,1.46.084.324.321.385.611.408a2.476,2.476,0,0,1,2.392,2.373q.485,3.287.861,6.589.972,8.393,1.9,16.79c.571,5.241,1.127,10.484,1.889,15.7.71,4.861,1.417,9.724,1.884,14.616a67.81,67.81,0,0,1,.459,9.421,4.359,4.359,0,0,1-2.176,3.763c-6.528,4.18-13.062,8.343-19.9,12.018a10.078,10.078,0,0,1-5.6,1.267c-5.677-.392-11.357-.747-17.038-1.1-1.671-.1-1.732-.018-1.731,1.651,0,2.759.021,5.518-.011,8.277-.01.866.321,1.247,1.186,1.314,4.212.326,8.42.7,12.62,1.155a215.235,215.235,0,0,1,25.928,4.432c3.671.862,7.336,1.744,11,2.62,2.054.491,2.288.784,2.282,2.86,0,.539-.036,1.077-.049,1.616-.007.285-.17.621.168.818.39.226.59-.129.834-.324a2.6,2.6,0,0,0,.247-.258,1.657,1.657,0,0,0,1.112-.875c7.312-5.778,13.125-12.892,18.324-20.553a4.247,4.247,0,0,0,1.049-1.469A201.333,201.333,0,0,0,187.1,57.621c.459-1,.837-2.043,1.252-3.065.284-.007.3-.178.245-.4a3.644,3.644,0,0,0,.151-3.67c-1.332-3.122-1.475-6.448-1.586-9.782-.229-6.92,1.555-13.458,3.7-19.932.075-.227.16-.451.236-.678.847-2.521,2.1-3.318,4.724-3.091a36.556,36.556,0,0,1,7.488,1.414c2.6.787,3.386,2.089,2.68,4.737-.562,2.106-1.337,4.155-1.923,6.255a20.358,20.358,0,0,0-.859,8.606,8.542,8.542,0,0,0,2.508,4.956,4.369,4.369,0,0,0,5.506.8,11.182,11.182,0,0,0,4.953-5.73,57.754,57.754,0,0,0,3.783-12.978c.05-.264.1-.53.172-.789.435-1.543,1.392-2.188,2.9-1.733a21.7,21.7,0,0,1,7.365,3.817,4.22,4.22,0,0,1,1.4,4.4c-1.606,7.982-4.389,15.46-9.464,21.964-3.8,4.872-8.482,8.324-14.676,9.448-.706.128-1.42.222-2.133.3a1.072,1.072,0,0,0-1.046.815c-2.67,9.4-7.445,17.782-12.66,25.945q-1.154,1.807-2.31,3.612a.577.577,0,0,0-.349.557c-3.817,5.4-7.525,10.885-11.677,16.048A108.159,108.159,0,0,1,156.043,130.2a39.342,39.342,0,0,1-9.22,4.95,1.667,1.667,0,0,0-1.237,1.638c-.662,9.056-1.81,18.057-3.14,27.037-1.255,8.472-2.461,16.951-3.683,25.428-.744,5.156-1.46,10.315-2.4,15.44-.146.794-.213,1.6-.384,2.393a8.54,8.54,0,0,1-3.6,5.194c-2.188,1.574-4.383,3.138-6.6,4.666a1.7,1.7,0,0,0-.819,1.812c.856,7.049,1.383,14.128,1.774,21.216q.745,13.5,1.41,27c.338,6.759.637,13.521.943,20.282a1.278,1.278,0,0,0,1.048,1.328,46.513,46.513,0,0,1,18.7,10.829,17.623,17.623,0,0,1,5.552,14.775c-.179,2.086-.125,4.193-.148,6.29A6.274,6.274,0,0,1,152.4,325.2C152,325.3,151.554,325.313,151.348,325.772ZM199.623,21.211a18.465,18.465,0,0,0-4.221-.705c-.411.015-.817.065-.964.5-.336.989-.649,1.987-.927,2.993-.109.4-.059.814.505.841,2.3.108,4.566.544,6.871.522.287,0,.623.083.737-.324a2.514,2.514,0,0,0,.892-3.049A2.335,2.335,0,0,0,199.623,21.211ZM71.272,312.653c-.3.117-.437.393-.6.64a16.465,16.465,0,0,1-7.869,6.155,45.709,45.709,0,0,1-7.118,2.157c-6.615,1.441-13.27,2.54-20.079,2.025a15.919,15.919,0,0,1-8.146-2.759c-.7-.491-1.319-1.088-2.052-1.7a3.47,3.47,0,0,0-.026.525,46.32,46.32,0,0,1,.4,5.454,3.1,3.1,0,0,0,2.287,2.99,32.445,32.445,0,0,0,9.623,1.953,45.3,45.3,0,0,0,12.046-.922A49.12,49.12,0,0,0,68.6,321.132a5.376,5.376,0,0,0,2.36-3.643,23.5,23.5,0,0,0,.329-4.825l.12-.188-.06-.048ZM88.65,207.928c7.257-.224,14.511-.121,21.764.116,1.108.036,1.328-.208,1.335-1.292.023-3.359.065-6.719.054-10.078-.029-9.148-.058-18.3-.135-27.443-.041-4.8-.109-9.593-.295-14.385-.418-10.779-1.589-21.521-1.6-32.321,0-.678-.282-.982-.957-1.008-1.2-.047-2.394-.125-3.591-.2-5.505-.33-11-.823-16.484-1.37-4.682-.466-9.364-.936-14.051-1.339-3.761-.324-7.53-.565-11.3-.816-5-.333-9.967-.887-14.932-1.527-4.067-.524-8.184-.716-12.153-1.861-.582-.168-.6.063-.562.5.163,1.821.258,3.65.485,5.463,1.026,8.174,2.5,16.284,3.439,24.472.745,6.52,1.526,13.036,2.256,19.557.6,5.39,1.148,10.787,1.732,16.179.613,5.66,1.266,11.317,1.857,16.979.323,3.1.773,6.185.939,9.3.061,1.151.561,1.523,1.724,1.389a19.925,19.925,0,0,1,2.144-.2c4.438-.03,8.875-.1,13.313-.112C71.977,207.915,80.313,207.928,88.65,207.928ZM113.068,76.3c0-.66-.017-1.32,0-1.979.124-4.145-.351-8.262-.591-12.39-.257-4.426-.58-8.85-.939-13.269-.424-5.226-.938-10.446-1.376-15.671-.418-4.986-.775-9.977-1.184-14.964-.153-1.87-.187-1.842-2.1-2-3.016-.247-6.03-.531-9.044-.8-4.984-.447-9.961-.975-14.952-1.325-7.748-.544-15.512-.633-23.278-.582-1.21.008-1.3.075-1.428,1.3q-.826,8.228-1.638,16.458c-.685,6.948-1.318,13.9-2.053,20.845-.952,9-1.983,17.988-2.979,26.982-.13,1.177.023,1.344,1.252,1.342q4.587-.006,9.161.331c5.2.382,10.4.79,15.6,1.143s10.4.655,15.608.978q9.375.582,18.75,1.156c1.039.063,1.182-.1,1.184-1.171Q113.072,79.494,113.068,76.3Zm2.825,111.928q0,8.595,0,17.19c0,.986.223,1.1,1.105.629,2.085-1.12,4.183-2.219,6.259-3.354,2.865-1.567,5.712-3.167,8.575-4.737a3.053,3.053,0,0,0,1.7-2.466c.461-3.8.943-7.588,1.473-11.374.539-3.844,1.148-7.679,1.722-11.518.569-3.81,1.145-7.619,1.7-11.432q.711-4.921,1.369-9.849c.229-1.717.414-3.44.6-5.163.077-.713-.206-1-.958-.792-1.181.328-2.374.613-3.565.9a39.442,39.442,0,0,1-8.361,1.526c-1.46.03-2.1-.619-2.055-2.087.086-2.631.272-5.26.338-7.891.1-4.04.339-8.072.538-12.106a67.721,67.721,0,0,1,.548-7.24c.142-.9-.085-1.062-1-.793-3.616,1.064-7.229,2.137-10.849,3.19a1.334,1.334,0,0,0-1.12,1.476c.045,2.846.022,5.692.188,8.535.153,2.628.191,5.266.413,7.888.351,4.142.588,8.29.824,12.438.2,3.436.286,6.878.364,10.319.081,3.564.094,7.13.163,10.7C115.969,177.546,115.893,182.888,115.893,188.228Zm20.52-121.636a16.724,16.724,0,0,0-.01-1.887q-.58-5.073-1.218-10.14c-.419-3.288-.854-6.574-1.332-9.853-.5-3.459-.87-6.932-1.2-10.411-.228-2.408-.507-4.812-.779-7.216-.33-2.908-.678-5.813-1.016-8.72-.262-2.255-.486-4.514-.79-6.763-.168-1.24-.4-1.341-1.618-1.048-.872.21-1.745.411-2.619.611a100.191,100.191,0,0,0-11.376,2.9,1.908,1.908,0,0,0-1.511,2.519,2.929,2.929,0,0,1,.063.443c.058,4.4.619,8.766.9,13.15.267,4.146.679,8.278,1.083,12.412s.786,8.269,1.061,12.412c.272,4.088.536,8.18.575,12.281.01,1.024.269,1.153,1.18.651,1.705-.942,3.3-2.061,4.98-3.041,1.6-.937,2.713-.359,3.025,1.473a36.482,36.482,0,0,1,.37,4.374c.094,1.94.234,3.879.317,5.82.032.758.381.822.915.494,2.7-1.666,5.4-3.33,8.079-5.036a2.422,2.422,0,0,0,1.157-2.292A24.073,24.073,0,0,1,136.414,66.592Zm1.08,42.658c-.388-.144-.574-.236-.77-.281-4.219-.98-8.433-1.976-12.689-2.791-3.96-.758-7.941-1.389-11.935-1.92-3.374-.449-6.753-.88-10.15-1.137-1.786-.135-3.566-.368-5.353-.484-2.4-.155-2.321-.179-2.3,1.946v.18c-.142,2.817-.541,3.343-3.1,4.067a21.712,21.712,0,0,1-8.665.965A13.8,13.8,0,0,1,77.88,108.5a3.553,3.553,0,0,1-1.929-2.852,20.678,20.678,0,0,1-.146-2.956c0-1.218-.107-1.316-1.308-.993-5.659,1.522-11.307,3.085-16.922,4.765-5.1,1.526-10.13,3.286-15.319,4.507-1.265.3-2.52.642-4.027,1.028a50.092,50.092,0,0,0,6.914.829c3.655.378,7.326.61,10.984.964,4.286.415,8.581.675,12.881.883,2.12.1,4.241.222,6.357.393,3.215.259,6.427.567,9.64.856q3.214.289,6.428.582c3,.279,6,.592,9.01.842,2.561.212,5.127.377,7.693.52a10.409,10.409,0,0,0,4.333-.444c2.438-.9,4.939-1.645,7.43-2.4,4.837-1.464,9.69-2.878,14.527-4.342A10,10,0,0,0,137.493,109.25ZM48.18,295.887c-.747.343-1.4.638-2.044.939-4.951,2.3-9.8,4.77-14.006,8.332a18.19,18.19,0,0,0-5.167,6.361,4.941,4.941,0,0,0,2.127,6.717,15.489,15.489,0,0,0,7.019,1.992,56.065,56.065,0,0,0,10.485-.54,63.432,63.432,0,0,0,16.089-3.93c5.046-2.025,7.525-5.921,7.113-11.343-.271-3.567-1.5-6.59-5.1-8.116-.742-.314-.942-.138-.945.59a21.216,21.216,0,0,1-.4,4.466c-.774,3.53-3.775,6.178-6.995,6.188a8.423,8.423,0,0,1-8.176-6.321A23.623,23.623,0,0,1,48.18,295.887Zm90.064,19.191c.6,0,1.2.009,1.8,0a16.517,16.517,0,0,0,7.813-1.735c3.182-1.738,3.98-4.311,2.348-7.543a19.834,19.834,0,0,0-5.449-6.259c-4.186-3.434-8.994-5.8-13.861-8.067-1.376-.64-1.551-.507-1.55,1.048a7.186,7.186,0,0,0,.015.989c.574,4.1-2.292,7.535-6.222,8.541a6.27,6.27,0,0,1-5.879-.969,9.443,9.443,0,0,1-3.344-5.495,27.474,27.474,0,0,1-.179-3.855c-.037-.583-.185-.96-.87-.647a7.467,7.467,0,0,0-4.159,3.884,12.872,12.872,0,0,0-.245,9.811c1.223,3.211,3.839,4.98,6.925,6.1A69.639,69.639,0,0,0,138.243,315.078ZM190.592,40.213a38.005,38.005,0,0,0,1.117,8.812c.162.688.414.994,1.176.715a4.091,4.091,0,0,1,2.9.127,11.511,11.511,0,0,1,3,1.782,17.958,17.958,0,0,1,5.132,6.507,1.544,1.544,0,0,0,1.757,1.051,19.912,19.912,0,0,0,10.944-4.975c5-4.578,7.927-10.369,10.085-16.65.2-.571-.081-.745-.518-.921a27.618,27.618,0,0,1-4.783-2.465c-.4-.263-.59-.252-.749.255-.386,1.227-.8,2.449-1.255,3.65a16.662,16.662,0,0,1-6.047,8.287,7.749,7.749,0,0,1-10.187-.926,12.746,12.746,0,0,1-3.547-7.494,21.469,21.469,0,0,1,.735-8.271c.238-1.01.043-1.284-.987-1.446a55.739,55.739,0,0,1-5.635-1.124c-.842-.224-1.236.05-1.434.844A49,49,0,0,0,190.592,40.213ZM50.2,210.556c-.747-.021-1.492.053-2.244-.035-.6-.071-1.08.186-.955.939.259,1.564.457,3.135.584,4.717a1.267,1.267,0,0,0,1.444,1.255c3.655.04,7.31.146,10.965.165,11.6.062,23.2-.146,34.8.336,2.542.106,5.084.184,7.624.356,2.718.184,5.44.292,8.16.444.561.031.8-.18.854-.758a36.645,36.645,0,0,0,.161-4.936c-.038-1.16-.374-1.519-1.528-1.514-6.593.031-13.181-.206-19.772-.328-7.1-.132-14.207.006-21.312-.165C62.721,210.88,56.454,211.023,50.2,210.556Zm75.254-203.6a8.759,8.759,0,0,0-2.3-.575,112.645,112.645,0,0,0-12.514-1.694c-2.772-.22-5.555-.317-8.321-.594a124.454,124.454,0,0,0-12.9-.657c-1.135,0-2.27.091-3.406.134-1.975.075-3.953.1-5.924.231A13.923,13.923,0,0,0,75.03,4.873c-3.261,1.511-6.545,2.973-9.81,4.477-.383.177-1.131.274-1.011.691.13.454.852.225,1.293.185a76.164,76.164,0,0,1,8.958-.2c5.058.134,10.106.354,15.148.771,2.532.209,5.07.359,7.6.582,3.66.323,7.317.685,10.975,1.035a1.934,1.934,0,0,0,1.913-.731,1.846,1.846,0,0,1,.86-.63,75.727,75.727,0,0,1,9.692-2.962C122.209,7.732,123.766,7.358,125.456,6.961Zm26.655,306.717a10.792,10.792,0,0,1-1.665,1.713,16.616,16.616,0,0,1-9.65,3.183,63.888,63.888,0,0,1-11.364-.669,75.4,75.4,0,0,1-13.857-3.254,16.638,16.638,0,0,1-7.7-5.075c-.657-.8-1.124-1.722-1.82-2.714a26.891,26.891,0,0,0,.459,5.595,4.608,4.608,0,0,0,1.971,3.17,43.242,43.242,0,0,0,8.592,5.016,52.438,52.438,0,0,0,20.284,4.419,38.9,38.9,0,0,0,5.887-.538,18.715,18.715,0,0,0,6.866-1.926,2.5,2.5,0,0,0,1.445-2.366,13.888,13.888,0,0,1,.1-1.52C151.842,317.113,151.953,315.507,152.111,313.677ZM27.787,175.313c.57,0,1.139.006,1.709,0a1.033,1.033,0,0,0,1.12-.936c.758-4.032,1.832-7.989,2.85-11.959.32-1.247.241-1.392-1.05-1.587a25.944,25.944,0,0,1-12.9-5.907c-.458-.381-.648-.414-.787.23-1.11,5.151-2.052,10.333-2.9,15.532a1.451,1.451,0,0,0,.809,1.689A21.549,21.549,0,0,0,27.787,175.313ZM23.12,137.769c-1.376,4.454-2.469,8.807-3.49,13.179a1.172,1.172,0,0,0,.654,1.411,49.658,49.658,0,0,0,5.1,2.651,31.012,31.012,0,0,0,7.737,2.26c1.358.208,1.82-.083,2.1-1.407a12.847,12.847,0,0,1,.85-2.833,10,10,0,0,0,.536-5.467,1.68,1.68,0,0,0-1.59-1.661,9.408,9.408,0,0,1-3.875-1.576A32.712,32.712,0,0,1,23.12,137.769ZM22.285,191.6a23.819,23.819,0,0,0,5.115-.527,1.182,1.182,0,0,0,1.027-1.161c.4-3.237.83-6.471,1.248-9.707.154-1.195.033-1.292-1.228-1.293a20.006,20.006,0,0,1-12.077-3.648c-.3-.219-.622-.722-.935-.555s-.258.742-.313,1.151c-.563,4.186-.87,8.395-1.2,12.6a1.159,1.159,0,0,0,.772,1.322A18.02,18.02,0,0,0,22.285,191.6Zm-8.382.65a2.73,2.73,0,0,0-.067.322c-.285,4.43-.189,8.869-.305,13.3-.019.708.418.968,1.03,1.145a31.7,31.7,0,0,0,11.588.76c.775-.066.794-.546.839-1.113q.416-5.288.86-10.573c.119-1.406.069-1.461-1.3-1.257a19.32,19.32,0,0,1-7.586-.284A17.031,17.031,0,0,1,13.9,192.251Zm15.708,27.317c-.158.94-.3,1.759-.434,2.581-.313,1.968-.89,3.794-2.627,5.015-.354.249-.275.512-.086.848.453.807.907,1.619,1.28,2.465a55,55,0,0,1,3.741,13.351c.077.469.136.864.714.785,2.015-.273,4.049-.406,6.046-.822a.784.784,0,0,0,.714-.95c-.089-.893-.148-1.789-.257-2.68A41.555,41.555,0,0,0,32.836,222.8,10.619,10.619,0,0,0,29.611,219.569Zm-15.9-9.726c0,3.183.021,6.238-.01,9.292a3.973,3.973,0,0,0,1.616,3.337,9.124,9.124,0,0,0,8.473,1.636,2.271,2.271,0,0,0,1.795-1.885,67.989,67.989,0,0,0,1.075-9.633c.062-.9-.208-1.152-1.085-1.093A25.361,25.361,0,0,1,13.709,209.842ZM128.66,131.874l.05,0c-.153,3.832-.3,7.664-.462,11.5-.046,1.078.232,1.342,1.33,1.106,2.869-.617,5.727-1.286,8.536-2.137s2.911-.282,3.006-4.1v-.09c.056-.63-.269-.817-.826-.68-.668.165-1.329.36-1.994.539-3.145.843-5,.1-6.7-2.653-2.6-4.194-2.658-8.645-1.42-13.258a3.786,3.786,0,0,1,3.119-2.956,39.282,39.282,0,0,0,7.372-2.545c1.536-.672,2.418-1.549,2.109-3.3a1.724,1.724,0,0,1,.053-.534c.09-.587-.1-.657-.633-.436a92.273,92.273,0,0,1-11.829,3.957,1.325,1.325,0,0,0-1.1,1.405Q128.976,124.779,128.66,131.874ZM7.319,244.978v-.028c.778,0,1.556-.008,2.334,0,.959.012,1.157-.164,1.173-1.142a31.529,31.529,0,0,1,4.043-15.641.877.877,0,0,0-.358-1.4,8.854,8.854,0,0,1-3.539-3.606c-.3-.6-.663-.706-1.165-.165a12.341,12.341,0,0,0-2.192,3.164c-2.654,5.714-3.141,11.871-3.634,18.024-.046.573.258.808.821.8C5.64,244.965,6.48,244.978,7.319,244.978ZM24.364,134.006a2.75,2.75,0,0,0,.912,2.039,36.8,36.8,0,0,0,8.63,5.777,5.872,5.872,0,0,0,1.193.387c.867.218.943.131.835-.758-.58-4.789-1.163-9.577-1.719-14.368a2.074,2.074,0,0,0-1.248-1.818,10.552,10.552,0,0,1-2.851-2.015c-.842-.81-1.091-.771-1.623.3a100.7,100.7,0,0,0-3.933,9.542A5.42,5.42,0,0,0,24.364,134.006Zm99.365,98.789c-.1-1.822-.217-3.644-.308-5.466-.031-.619-.222-.887-.886-.621a18.231,18.231,0,0,1-9.893.733c-.98-.158-1.14-.049-1.05.95.223,2.473.487,4.942.722,7.414a.705.705,0,0,0,.541.721,17.81,17.81,0,0,0,10.259.015.983.983,0,0,0,.755-1.148C123.8,234.528,123.774,233.661,123.729,232.795Zm-64.454,9.67a19.56,19.56,0,0,0,5.05-.722.962.962,0,0,0,.795-.94c.221-2.355.465-4.707.672-7.063.1-1.1-.1-1.231-1.225-1.074a18.677,18.677,0,0,1-9.56-.75c-.81-.316-.954-.176-1.01.744-.152,2.51-.291,5.02-.474,7.528a1.373,1.373,0,0,0,1.141,1.641A18.4,18.4,0,0,0,59.275,242.465Zm56.3-26.319c0,.389-.016.779,0,1.168.018.338-.18.768.242.973s.742-.088,1.058-.312c4.251-3,8.487-6.03,12.76-9a4.483,4.483,0,0,0,2.147-3.136c.131-.912.414-1.8.616-2.706.084-.374.23-.8-.173-1.069s-.741.042-1.06.247a105.476,105.476,0,0,1-11.065,6.127,19.629,19.629,0,0,0-2.9,1.615,3.864,3.864,0,0,0-1.778,3.775A19.349,19.349,0,0,1,115.577,216.146ZM189.766,60.7c-.108.058-.144.065-.155.085-.876,1.7-1.738,3.405-2.628,5.1-1.3,2.475-1.31,2.47.689,4.394a13.426,13.426,0,0,0,7.617,3.878c.645.088,1.091.02,1.379-.729.7-1.81,1.513-3.574,2.28-5.357.472-1.1.467-1.132-.61-1.577A22.744,22.744,0,0,1,189.766,60.7ZM154.18,111.159c-1.938,1.508-3.757,2.924-5.577,4.337a1.161,1.161,0,0,0-.436,1.358c1.162,3.628,3.063,6.685,6.571,8.513a1.461,1.461,0,0,0,1.944-.215c.508-.505,1.1-.924,1.655-1.383,1.286-1.068,2.57-2.137,3.927-3.266A12.533,12.533,0,0,1,154.18,111.159Zm16.22,1.05c-4.175-1.622-7.306-4.162-8.6-8.606-1.768,1.922-3.427,3.692-5.234,5.314a.757.757,0,0,0-.208.96,24.959,24.959,0,0,0,1.9,3.959,7.823,7.823,0,0,0,5.887,3.821,1.538,1.538,0,0,0,1.484-.386C167.155,115.625,168.705,114,170.4,112.208ZM153.06,127.732c-.244-.2-.376-.319-.524-.418a14.3,14.3,0,0,1-6.2-8.812c-.035-.145-.11-.28-.141-.426-.135-.631-.418-.779-1.005-.418a28.038,28.038,0,0,1-4.9,2.42.837.837,0,0,0-.564,1.133c.172.727.312,1.464.512,2.183A13.488,13.488,0,0,0,145.177,131c.4.291.808.583,1.315.362A30.888,30.888,0,0,0,153.06,127.732Zm21.161-40.661c-1,1.428-1.92,2.754-2.847,4.075-1.791,2.552-1.793,2.552.139,5.095A10.375,10.375,0,0,0,178.4,100.4a1.674,1.674,0,0,0,1.946-.809c1-1.593,2.139-3.1,3.246-4.631.351-.484.393-.687-.3-.834a11.9,11.9,0,0,1-5.026-2.471A22.443,22.443,0,0,1,174.222,87.072ZM124.56,250.438c-.128-.007-.2-.032-.242-.01a15.817,15.817,0,0,1-9.546,1.246c-.947-.141-1.1.011-1.009,1.014.186,2.116.48,4.222.536,6.349.034,1.307.343,1.676,1.635,1.735a24.1,24.1,0,0,0,8.307-1.194.786.786,0,0,0,.667-.827Q124.738,254.592,124.56,250.438ZM52.818,259.95h-.284c0,1.2.039,2.4-.015,3.59a1.094,1.094,0,0,0,.917,1.281,23.337,23.337,0,0,0,8.151,1.054c1.312-.068,1.449-.194,1.553-1.536.155-2,.281-4,.474-6,.139-1.446.016-1.624-1.385-1.436a14.956,14.956,0,0,1-8.768-1.176c-.59-.288-.653-.048-.648.452C52.827,257.435,52.818,258.693,52.818,259.95Zm66.057,13.066a14.7,14.7,0,0,0,5.479-.7,1.381,1.381,0,0,0,1.088-1.575c0-2.544-.326-5.07-.344-7.611-.007-1-.206-1.127-1.112-.669a15.63,15.63,0,0,1-8.149,1.679c-.781-.048-1.075.258-.985,1.059.252,2.228.48,4.46.663,6.695a1.046,1.046,0,0,0,1.118,1.117C117.379,273.039,118.127,273.016,118.875,273.016Zm-66.854,1.532a11.4,11.4,0,0,1-.009,1.349c-.111.925.333,1.36,1.176,1.609a18.14,18.14,0,0,0,7.822.616c.562-.08.861-.3.911-.892.17-2,.381-4,.552-6,.153-1.788.139-1.79-1.584-1.853l-.27-.01a16.778,16.778,0,0,1-7.505-1.911c-.408-.223-.769-.3-.759.359A38.621,38.621,0,0,1,52.021,274.549ZM59.23,253.8a23.139,23.139,0,0,0,3.86-.407c.511-.084.964-.209,1.012-.908.145-2.118.329-4.234.537-6.346.076-.774-.1-1.024-.922-.806a14.219,14.219,0,0,1-9.381-.723c-.881-.371-1.045-.261-1.02.729a51.4,51.4,0,0,1-.343,6.342,1.275,1.275,0,0,0,1.125,1.556A22.114,22.114,0,0,0,59.23,253.8Zm64.7-14.7a15.131,15.131,0,0,1-10.5,1.013c-.532-.143-.7.175-.665.654.18,2.178.365,4.356.542,6.535a.9.9,0,0,0,.845.882,21.762,21.762,0,0,0,9.182-.136,1.2,1.2,0,0,0,1.073-1.453c-.123-1.882-.148-3.77-.248-5.654A5.114,5.114,0,0,0,123.931,239.106ZM185.226,91.4a1.113,1.113,0,0,0,1.1-.46q1.6-2.491,3.2-4.988c.331-.517.192-.834-.4-.966-.671-.149-1.35-.273-2.013-.453a11.693,11.693,0,0,1-6.924-4.948c-.544-.822-.57-.8-1.123.05-.978,1.506-1.943,3.02-2.946,4.51a1.173,1.173,0,0,0,.084,1.614,29.1,29.1,0,0,0,2.471,2.605A10.951,10.951,0,0,0,185.226,91.4ZM177.4,103.5c-4.633-.526-7.619-3.16-9.76-7.047l-4.011,4.987a.819.819,0,0,0-.07.923,11.947,11.947,0,0,0,8.319,7.176.863.863,0,0,0,.977-.251C174.382,107.442,175.934,105.62,177.4,103.5ZM125.819,278.985c0-1.347.008-2.694,0-4.042-.007-.839-.158-.921-.9-.486a14.817,14.817,0,0,1-1.913.976,14.328,14.328,0,0,1-6.081.858c-.633-.025-.962.143-.906.845q.274,3.443.5,6.889c.05.767.417,1.089,1.172,1.175a16.836,16.836,0,0,0,7.219-1.02,1.186,1.186,0,0,0,.915-1.334C125.8,281.561,125.819,280.273,125.819,278.985ZM51.869,285.8H51.69c-.04.777-.074,1.554-.12,2.33a.949.949,0,0,0,.613,1.077,16.2,16.2,0,0,0,7.828,1.129.884.884,0,0,0,.868-.939c.154-2.329.329-4.657.536-6.982.074-.833-.289-1.049-1.037-1a12.61,12.61,0,0,1-7.9-1.839c-.559-.356-.625-.147-.62.385C51.88,281.907,51.869,283.852,51.869,285.8ZM126.1,289.17h-.131c0-.51-.017-1.02,0-1.529.024-.586-.173-.784-.737-.505a12.948,12.948,0,0,1-7.427,1.208c-.847-.1-1.046.234-.995,1,.1,1.553.146,3.11.215,4.665a4.27,4.27,0,0,0,4.113,4.17c2.856-.02,4.936-1.839,4.956-4.349C126.112,292.278,126.1,290.724,126.1,289.17ZM56.169,303.319a4.011,4.011,0,0,0,4.133-3.665c.31-1.834.131-3.7.339-5.546.056-.5-.212-.751-.7-.667a12.7,12.7,0,0,1-7.685-1.112c-.52-.241-.812-.1-.774.508.132,2.119-.232,4.221-.2,6.34a3.43,3.43,0,0,0,1.416,2.851A6.152,6.152,0,0,0,56.169,303.319ZM184.591,70.429c-1.173,1.98-2.264,3.836-3.372,5.682-.278.464-.035.794.209,1.141a11.284,11.284,0,0,0,9.26,4.865,1.729,1.729,0,0,0,1.719-.9c.6-1,1.178-2.015,1.785-3.012.559-.919.467-1.17-.623-1.309a9.356,9.356,0,0,1-3.678-1.355A17.517,17.517,0,0,1,184.591,70.429ZM78.8,94.877h.088c0,.748.005,1.5,0,2.245A1.982,1.982,0,0,0,80.468,99.2a19.337,19.337,0,0,0,9.931.269c.823-.153,1.01-.761,1.007-1.472-.005-1.438-.036-2.875-.042-4.313,0-.637-.248-.875-.9-.685a16.289,16.289,0,0,1-3.166.612A15.444,15.444,0,0,1,79.689,92.3c-.822-.358-.929-.262-.9.6C78.814,93.559,78.8,94.218,78.8,94.877ZM60.135,229.851a31.465,31.465,0,0,0,5.069-.5,1.313,1.313,0,0,0,1.237-1.377c.088-1.009.226-2.015.4-3.014.208-1.225.063-1.449-1.2-1.393a16.824,16.824,0,0,1-7.859-1.416,5.674,5.674,0,0,0-2.481-.212c-.415,0-.563.261-.586.642q-.167,2.815-.344,5.629a.823.823,0,0,0,.73.95A17.807,17.807,0,0,0,60.135,229.851Zm56.657-152.9c0,1.679,0,3.359,0,5.038,0,.951.188,1.058,1.051.584,1.732-.951,3.446-1.933,5.189-2.863a1.262,1.262,0,0,0,.741-1.367c-.184-3.139-.322-6.281-.477-9.421-.048-.98-.245-1.09-1.162-.638-1.53.755-3.048,1.534-4.59,2.264a1.215,1.215,0,0,0-.762,1.274C116.809,73.532,116.792,75.241,116.792,76.951Zm25.915,55.886a1.248,1.248,0,0,0-.128-.218,17.02,17.02,0,0,1-5.255-10.934c-.045-.493-.319-.6-.7-.633a3.664,3.664,0,0,0-3.429,2.538,18.515,18.515,0,0,0-.307,5.369,9.692,9.692,0,0,0,1.968,5.134,1.494,1.494,0,0,0,1.532.732A38.919,38.919,0,0,0,142.707,132.837Zm58.35-71.345a5.943,5.943,0,0,0,.023-.627,2.092,2.092,0,0,0-.107-.7,13.408,13.408,0,0,0-5.96-6.821,1.545,1.545,0,0,0-2.429.792c-.476.964-.892,1.957-1.368,2.921-.566,1.145-.526,1.452.442,2.324a23.454,23.454,0,0,0,6.3,4.075C200.482,64.564,200.99,64.246,201.057,61.492ZM85.576,90.794a26.176,26.176,0,0,0,3.571-.381c2.177-.409,2.285-.551,2.147-2.752-.037-.588-.289-.88-.872-.912-3.558-.195-7.116-.4-10.675-.582-.343-.018-.728-.043-.968.329a2.552,2.552,0,0,0,1.071,3.317A18.692,18.692,0,0,0,85.576,90.794ZM40.494,13.517a4.832,4.832,0,0,0,4.959-3.611c.559-2.151-.761-4.16-2.783-4.084A4.861,4.861,0,0,0,37.8,10.784C37.824,12.788,38.523,13.511,40.494,13.517ZM84.739,106.58a20.8,20.8,0,0,0,4.731-.454c1.784-.323,1.939-.543,1.969-2.372.024-1.47-.064-1.49-1.527-1.256-3.312.53-6.606.712-9.753-.838-.83-.409-1.325-.029-1.27.919a14.434,14.434,0,0,1,.145,1.608,1.665,1.665,0,0,0,1.364,1.83A12.318,12.318,0,0,0,84.739,106.58ZM228.77,30.291c-.135-.625-.025-1.389-.641-1.794a27.357,27.357,0,0,0-4.552-2.521c-.443-.183-.808-.109-.941.469-.354,1.544-.736,3.081-1.11,4.62-.119.491.029.891.54.94a19.176,19.176,0,0,1,3.685,1.107c2.029.611,2.633.237,2.87-1.83C228.659,30.955,228.718,30.633,228.77,30.291ZM5.12,246.978c-.973-.029-1.31.274-1.335,1.24-.019.747,0,1.495-.014,2.242-.017,1.212.4,1.65,1.628,1.465a17.615,17.615,0,0,1,3.653.135c.982.053,1.49-.255,1.542-1.231a23.143,23.143,0,0,1,.159-2.32c.074-.477-.082-.975-.661-.97C8.408,247.555,6.781,247.123,5.12,246.978Zm111.87-22.335a20.208,20.208,0,0,0,5.153-.551c.706-.161,1.093-.508.992-1.315-.118-.946-.138-1.9-.218-2.857-.054-.647-.371-.76-.89-.4-.612.43-1.215.874-1.84,1.284-1.413.929-2.638,2.177-4.419,2.472a17.583,17.583,0,0,1-3.66-.075c-.361-.015-.894-.213-.984.32-.1.605.52.588.88.656A23.037,23.037,0,0,0,116.99,224.643ZM38,246.582a25.558,25.558,0,0,1-4.636.3c-1.312.064-1.486.588-1.233,1.86.023.117.051.234.075.351a1.177,1.177,0,0,0,1.425,1.109,22.223,22.223,0,0,0,4.816-.974c.809-.263,1.033-.865.913-1.8C39.246,246.526,38.7,246.483,38,246.582ZM33.578,116.518a8.888,8.888,0,0,0-2.552,2.94.715.715,0,0,0,.333,1c.574.376,1.168.723,1.755,1.08.241.147.462.218.463-.194C33.58,119.8,33.578,118.256,33.578,116.518Z"
              transform="translate(-0.18 -0.18)"/>
        <path class="cls-2" d="M.18,247.32l.182,0A8.751,8.751,0,0,1,.18,250.38Z" transform="translate(-0.18 -0.18)"/>
        <path class="cls-3" d="M97.93.339,95.617.32,95.58.18h2.34Z" transform="translate(-0.18 -0.18)"/>
        <path class="cls-3" d="M82.611.342,82.62.18h2.34l-.045.128Z" transform="translate(-0.18 -0.18)"/>
        <path class="cls-2" d="M95.58.18l.037.14c-.555-.014-1.129.2-1.657-.14Z" transform="translate(-0.18 -0.18)"/>
        <path class="cls-2" d="M84.915.308,84.96.18H86.4C85.931.526,85.414.309,84.915.308Z"
              transform="translate(-0.18 -0.18)"/>
        <path class="cls-3" d="M37.26,162.36a4.8,4.8,0,0,1,.484-1.9,4.344,4.344,0,0,1,.158,1.93Z"
              transform="translate(-0.18 -0.18)"/>
        <path class="cls-3"
              d="M169.015,88.377a4.247,4.247,0,0,1-1.049,1.469C167.915,89.071,167.952,88.358,169.015,88.377Z"
              transform="translate(-0.18 -0.18)"/>
        <path class="cls-3"
              d="M149.641,110.4a1.657,1.657,0,0,1-1.112.875C148.533,110.516,148.889,110.206,149.641,110.4Z"
              transform="translate(-0.18 -0.18)"/>
        <path class="cls-3" d="M28.282,304.762c-.248.294-.227.81-.736.886C27.695,305.272,27.155,304.324,28.282,304.762Z"
              transform="translate(-0.18 -0.18)"/>
        <path class="cls-3"
              d="M151.348,325.772c.206-.459.652-.475,1.055-.572C152.49,326.2,151.736,325.648,151.348,325.772Z"
              transform="translate(-0.18 -0.18)"/>
        <path class="cls-3" d="M37.7,224.9c-.263-.2-.536-.391-.458-.787C37.955,224.048,37.812,224.483,37.7,224.9Z"
              transform="translate(-0.18 -0.18)"/>
        <path class="cls-3"
              d="M188.6,54.159c.058.219.039.389-.245.4-.124-.047-.214-.143-.152-.263C188.277,54.142,188.449,54.161,188.6,54.159Z"
              transform="translate(-0.18 -0.18)"/>
        <path class="cls-3" d="M189.161,93.406a.577.577,0,0,1,.349-.557C189.487,93.093,189.552,93.392,189.161,93.406Z"
              transform="translate(-0.18 -0.18)"/>
        <path class="cls-3"
              d="M88.65,207.928c-8.337,0-16.674-.013-25.01.005-4.438.01-8.875.082-13.313.112a19.925,19.925,0,0,0-2.144.2c-1.164.134-1.663-.239-1.724-1.389-.166-3.116-.615-6.2-.939-9.3-.591-5.663-1.244-11.319-1.857-16.979-.584-5.392-1.129-10.789-1.732-16.179-.73-6.522-1.511-13.037-2.256-19.557-.935-8.187-2.413-16.3-3.439-24.472-.228-1.813-.322-3.642-.485-5.463-.039-.437-.02-.668.562-.5,3.969,1.145,8.086,1.337,12.153,1.861,4.965.64,9.936,1.194,14.932,1.527,3.767.251,7.536.492,11.3.816,4.687.4,9.369.873,14.051,1.339,5.487.546,10.979,1.039,16.484,1.37,1.2.072,2.393.15,3.591.2.674.026.956.33.957,1.008.007,10.8,1.179,21.542,1.6,32.321.186,4.792.254,9.589.295,14.385.077,9.147.106,18.295.135,27.443.011,3.359-.031,6.719-.054,10.078-.007,1.085-.227,1.329-1.335,1.292C103.161,207.807,95.907,207.7,88.65,207.928Zm1.327-18.6c2.849,0,5.7.015,8.548,0,2.461-.017,3.571-.914,3.859-3.1a11.525,11.525,0,0,0,.072-1.791c-.031-1.212.3-1.666,1.51-1.948.32-.075.649-.112.971-.18a3.109,3.109,0,0,0,2.764-3.062,29.97,29.97,0,0,0,.014-3.949c-.01-2.458-.034-4.915-.259-7.365-.17-1.853-1.189-2.679-3.023-2.445-.416.053-.832.114-1.241.2-.628.138-.92-.147-.941-.738-.02-.539.009-1.079.017-1.619.01-.686-.326-1.5.043-2.025.432-.617,1.341-.249,2.034-.356a2.831,2.831,0,0,0,2.723-3c.013-.628-.031-1.258-.045-1.887-.057-2.606-.02-5.216-.266-7.816a2.473,2.473,0,0,0-2.348-2.6,13.779,13.779,0,0,0-2.227-.27c-.9-.016-1.182-.427-1.217-1.278-.078-1.885-.244-3.767-.365-5.651a3.589,3.589,0,0,0-2.853-3.57,40,40,0,0,0-4.656-.967,121.949,121.949,0,0,0-15.335-.837c-7.285-.143-14.573-.1-21.86-.129a23.125,23.125,0,0,0-2.424.1,1.962,1.962,0,0,0-2.015,1.989,74.318,74.318,0,0,0,.236,8.176c.821,8.138,1.629,16.276,2.475,24.411.647,6.229,1.514,12.428,2.681,18.583.428,2.255,1.373,3.061,3.685,3.346a81.961,81.961,0,0,0,10.417.332c4.37-.02,8.725-.38,13.088-.541C86.015,189.271,88,189.332,89.977,189.332Z"
              transform="translate(-0.18 -0.18)"/>
        <path class="cls-3"
              d="M113.068,76.3q0,3.194,0,6.388c0,1.074-.145,1.234-1.184,1.171q-9.376-.568-18.75-1.156c-5.2-.323-10.407-.624-15.608-.978s-10.4-.761-15.6-1.143q-4.574-.336-9.161-.331c-1.229,0-1.382-.165-1.252-1.342,1-8.994,2.027-17.984,2.979-26.982.735-6.943,1.368-13.9,2.053-20.845q.811-8.23,1.638-16.458c.123-1.227.217-1.294,1.428-1.3,7.766-.051,15.53.038,23.278.582,4.99.35,9.968.878,14.952,1.325,3.014.27,6.028.554,9.044.8,1.911.157,1.944.129,2.1,2,.408,4.987.766,9.978,1.184,14.964.438,5.225.951,10.445,1.376,15.671.359,4.419.682,8.843.939,13.269.24,4.127.715,8.245.591,12.39C113.051,74.98,113.068,75.64,113.068,76.3ZM82.824,74.177a59.531,59.531,0,0,0,12.98-1.1,20.578,20.578,0,0,0,7.649-2.72c2.424-1.623,3.8-3.828,3.327-6.846A8.956,8.956,0,0,0,99.467,56.5a13.344,13.344,0,0,0-6.68.981A34.531,34.531,0,0,1,77.849,59.4,17.282,17.282,0,0,1,67.6,55.3a10.981,10.981,0,0,0-2.688-1.785,4.429,4.429,0,0,0-5.343,1c-3.687,4.532-2.653,11.088,1.581,13.944a31.8,31.8,0,0,0,6.023,3.184A37.674,37.674,0,0,0,82.824,74.177Zm5.4-38.63a8.343,8.343,0,0,0,6.317,8.458,11.721,11.721,0,0,0,4.007.309,9.488,9.488,0,0,0,8.725-11.68c-1.251-5.562-6.065-8.309-11.547-6.851A9.922,9.922,0,0,0,88.228,35.547ZM67.9,41.069c7.679-.131,11.566-7.376,10.083-13.5-1.159-4.784-6.021-6.365-9.884-5.672a10.912,10.912,0,0,0-8.476,11.688A8.074,8.074,0,0,0,67.9,41.069Z"
              transform="translate(-0.18 -0.18)"/>
        <path class="cls-2"
              d="M115.893,188.228c0-5.34.076-10.681-.027-16.019-.069-3.565-.081-7.131-.163-10.7-.079-3.441-.169-6.884-.364-10.319-.236-4.148-.473-8.3-.824-12.438-.222-2.622-.259-5.259-.413-7.888-.166-2.844-.144-5.69-.188-8.535a1.334,1.334,0,0,1,1.12-1.476c3.619-1.053,7.233-2.126,10.849-3.19.913-.269,1.14-.107,1,.793a67.721,67.721,0,0,0-.548,7.24c-.2,4.035-.437,8.067-.538,12.106-.066,2.632-.251,5.26-.338,7.891-.048,1.468.6,2.117,2.055,2.087a39.442,39.442,0,0,0,8.361-1.526c1.192-.286,2.385-.57,3.565-.9.752-.209,1.035.079.958.792-.186,1.722-.371,3.446-.6,5.163q-.658,4.928-1.369,9.849c-.551,3.813-1.127,7.622-1.7,11.432-.574,3.839-1.183,7.674-1.722,11.518-.531,3.786-1.012,7.579-1.473,11.374a3.053,3.053,0,0,1-1.7,2.466c-2.863,1.571-5.71,3.171-8.575,4.737-2.077,1.136-4.174,2.234-6.259,3.354-.882.474-1.1.357-1.105-.629Q115.89,196.823,115.893,188.228Z"
              transform="translate(-0.18 -0.18)"/>
        <path class="cls-2"
              d="M136.414,66.592a24.073,24.073,0,0,0,.239,3.129,2.422,2.422,0,0,1-1.157,2.292c-2.676,1.706-5.378,3.37-8.079,5.036-.533.329-.882.264-.915-.494-.083-1.941-.223-3.879-.317-5.82a36.482,36.482,0,0,0-.37-4.374c-.312-1.833-1.421-2.41-3.025-1.473-1.678.98-3.275,2.1-4.98,3.041-.91.5-1.17.373-1.18-.651-.039-4.1-.3-8.192-.575-12.281-.276-4.143-.657-8.279-1.061-12.412s-.817-8.266-1.083-12.412c-.282-4.384-.843-8.75-.9-13.15a2.929,2.929,0,0,0-.063-.443,1.908,1.908,0,0,1,1.511-2.519,100.191,100.191,0,0,1,11.376-2.9c.874-.2,1.748-.4,2.619-.611,1.216-.293,1.45-.193,1.618,1.048.3,2.249.529,4.509.79,6.763.337,2.907.686,5.812,1.016,8.72.273,2.4.552,4.807.779,7.216.329,3.479.695,6.952,1.2,10.411.477,3.28.912,6.566,1.332,9.853q.646,5.065,1.218,10.14A16.724,16.724,0,0,1,136.414,66.592Z"
              transform="translate(-0.18 -0.18)"/>
        <path class="cls-2"
              d="M137.493,109.25a10,10,0,0,1-3.069,1.437c-4.837,1.464-9.69,2.878-14.527,4.342-2.491.754-4.991,1.5-7.43,2.4a10.409,10.409,0,0,1-4.333.444c-2.566-.143-5.132-.307-7.693-.52-3.006-.249-6.006-.562-9.01-.842q-3.213-.3-6.428-.582c-3.213-.289-6.424-.6-9.64-.856-2.116-.17-4.236-.29-6.357-.393-4.3-.209-8.594-.469-12.881-.883-3.658-.354-7.328-.586-10.984-.964A50.092,50.092,0,0,1,38.228,112c1.508-.386,2.762-.731,4.027-1.028,5.189-1.221,10.22-2.981,15.319-4.507,5.615-1.68,11.263-3.244,16.922-4.765,1.2-.323,1.306-.225,1.308.993a20.678,20.678,0,0,0,.146,2.956A3.553,3.553,0,0,0,77.88,108.5a13.8,13.8,0,0,0,4.643,1.291,21.712,21.712,0,0,0,8.665-.965c2.563-.724,2.962-1.251,3.1-4.067v-.18c-.018-2.125-.093-2.1,2.3-1.946,1.787.116,3.567.349,5.353.484,3.4.257,6.776.688,10.15,1.137,3.994.531,7.975,1.162,11.935,1.92,4.256.815,8.47,1.811,12.689,2.791C136.92,109.014,137.105,109.106,137.493,109.25Z"
              transform="translate(-0.18 -0.18)"/>
        <path class="cls-3"
              d="M48.18,295.887a23.623,23.623,0,0,0,0,5.334,8.423,8.423,0,0,0,8.176,6.321c3.22-.01,6.221-2.657,6.995-6.188a21.216,21.216,0,0,0,.4-4.466c0-.728.2-.9.945-.59,3.6,1.526,4.831,4.549,5.1,8.116.413,5.422-2.066,9.318-7.113,11.343a63.432,63.432,0,0,1-16.089,3.93,56.065,56.065,0,0,1-10.485.54,15.489,15.489,0,0,1-7.019-1.992,4.941,4.941,0,0,1-2.127-6.717,18.19,18.19,0,0,1,5.167-6.361c4.2-3.561,9.054-6.03,14.006-8.332C46.783,296.525,47.432,296.23,48.18,295.887Z"
              transform="translate(-0.18 -0.18)"/>
        <path class="cls-3"
              d="M138.243,315.078a69.639,69.639,0,0,1-22.86-4.2c-3.086-1.12-5.7-2.889-6.925-6.1a12.872,12.872,0,0,1,.245-9.811,7.467,7.467,0,0,1,4.159-3.884c.685-.313.833.065.87.647a27.474,27.474,0,0,0,.179,3.855,9.443,9.443,0,0,0,3.344,5.495,6.27,6.27,0,0,0,5.879.969c3.931-1.006,6.8-4.444,6.222-8.541a7.186,7.186,0,0,1-.015-.989c0-1.555.175-1.688,1.55-1.048,4.867,2.264,9.675,4.633,13.861,8.067A19.834,19.834,0,0,1,150.2,305.8c1.632,3.233.834,5.805-2.348,7.543a16.517,16.517,0,0,1-7.812,1.735C139.443,315.087,138.843,315.078,138.243,315.078Z"
              transform="translate(-0.18 -0.18)"/>
        <path class="cls-3"
              d="M190.592,40.213a49,49,0,0,1,1.71-12.242c.2-.795.592-1.068,1.434-.844a55.739,55.739,0,0,0,5.635,1.124c1.029.162,1.225.437.987,1.446a21.469,21.469,0,0,0-.735,8.271,12.746,12.746,0,0,0,3.547,7.494,7.749,7.749,0,0,0,10.187.926A16.662,16.662,0,0,0,219.4,38.1c.46-1.2.87-2.423,1.255-3.65.159-.507.345-.518.749-.255a27.618,27.618,0,0,0,4.783,2.465c.437.176.714.349.518.921-2.158,6.28-5.086,12.071-10.085,16.65a19.912,19.912,0,0,1-10.944,4.975,1.544,1.544,0,0,1-1.757-1.051,17.958,17.958,0,0,0-5.132-6.507,11.511,11.511,0,0,0-3-1.782,4.091,4.091,0,0,0-2.9-.127c-.761.28-1.014-.026-1.176-.715A38.005,38.005,0,0,1,190.592,40.213Z"
              transform="translate(-0.18 -0.18)"/>
        <path class="cls-4"
              d="M50.2,210.556c6.253.467,12.519.324,18.778.476,7.105.172,14.21.034,21.312.165,6.59.122,13.178.359,19.772.328,1.154-.005,1.49.354,1.528,1.514a36.645,36.645,0,0,1-.161,4.936c-.059.578-.293.79-.854.758-2.72-.153-5.442-.261-8.16-.444-2.54-.172-5.082-.25-7.624-.356-11.6-.483-23.2-.274-34.8-.336-3.655-.02-7.31-.126-10.965-.165a1.267,1.267,0,0,1-1.444-1.255c-.127-1.582-.325-3.152-.584-4.717-.125-.753.352-1.009.955-.939C48.709,210.609,49.455,210.535,50.2,210.556Z"
              transform="translate(-0.18 -0.18)"/>
        <path class="cls-2"
              d="M125.456,6.961c-1.69.4-3.247.772-4.808,1.128a75.727,75.727,0,0,0-9.692,2.962,1.846,1.846,0,0,0-.86.63,1.934,1.934,0,0,1-1.913.731c-3.658-.35-7.315-.713-10.975-1.035-2.531-.223-5.069-.373-7.6-.582-5.042-.416-10.09-.636-15.148-.771a76.164,76.164,0,0,0-8.958.2c-.44.04-1.162.269-1.293-.185-.12-.417.627-.514,1.011-.691,3.265-1.5,6.548-2.966,9.81-4.477a13.923,13.923,0,0,1,5.059-1.068c1.971-.128,3.949-.156,5.924-.231,1.135-.043,2.27-.13,3.406-.134a124.454,124.454,0,0,1,12.9.657c2.766.277,5.549.374,8.321.594a112.645,112.645,0,0,1,12.514,1.694A8.759,8.759,0,0,1,125.456,6.961Z"
              transform="translate(-0.18 -0.18)"/>
        <path class="cls-2"
              d="M152.111,313.677c-.158,1.83-.269,3.436-.449,5.034a13.888,13.888,0,0,0-.1,1.52,2.5,2.5,0,0,1-1.445,2.366,18.715,18.715,0,0,1-6.866,1.926,38.9,38.9,0,0,1-5.887.538,52.438,52.438,0,0,1-20.284-4.419,43.242,43.242,0,0,1-8.592-5.016,4.608,4.608,0,0,1-1.971-3.17,26.891,26.891,0,0,1-.459-5.595c.7.992,1.163,1.915,1.82,2.714a16.638,16.638,0,0,0,7.7,5.075,75.4,75.4,0,0,0,13.857,3.254,63.888,63.888,0,0,0,11.364.669,16.616,16.616,0,0,0,9.65-3.183A10.792,10.792,0,0,0,152.111,313.677Z"
              transform="translate(-0.18 -0.18)"/>
        <path class="cls-2"
              d="M71.286,312.665a23.516,23.516,0,0,1-.329,4.824,5.376,5.376,0,0,1-2.36,3.643,49.12,49.12,0,0,1-18.861,8.037,45.3,45.3,0,0,1-12.046.922,32.445,32.445,0,0,1-9.623-1.953,3.1,3.1,0,0,1-2.287-2.99,46.32,46.32,0,0,0-.4-5.454,3.47,3.47,0,0,1,.026-.525c.733.613,1.356,1.209,2.052,1.7A15.919,15.919,0,0,0,35.6,323.63c6.808.515,13.463-.584,20.079-2.025a45.709,45.709,0,0,0,7.118-2.157,16.465,16.465,0,0,0,7.869-6.155c.166-.247.3-.523.6-.64Z"
              transform="translate(-0.18 -0.18)"/>
        <path class="cls-3"
              d="M27.787,175.313a21.549,21.549,0,0,1-11.148-2.941,1.451,1.451,0,0,1-.809-1.689c.851-5.2,1.793-10.381,2.9-15.532.139-.643.328-.611.787-.23a25.944,25.944,0,0,0,12.9,5.907c1.291.2,1.37.34,1.05,1.587-1.018,3.97-2.092,7.927-2.85,11.959a1.033,1.033,0,0,1-1.12.936C28.926,175.319,28.356,175.313,27.787,175.313Z"
              transform="translate(-0.18 -0.18)"/>
        <path class="cls-3"
              d="M23.12,137.769a32.712,32.712,0,0,0,8.017,6.557,9.408,9.408,0,0,0,3.875,1.576,1.68,1.68,0,0,1,1.59,1.661,10,10,0,0,1-.536,5.467,12.847,12.847,0,0,0-.85,2.833c-.277,1.324-.74,1.615-2.1,1.407a31.012,31.012,0,0,1-7.737-2.26,49.658,49.658,0,0,1-5.1-2.651,1.172,1.172,0,0,1-.654-1.411C20.651,146.576,21.744,142.222,23.12,137.769Z"
              transform="translate(-0.18 -0.18)"/>
        <path class="cls-3"
              d="M22.285,191.6a18.02,18.02,0,0,1-7.59-1.816,1.159,1.159,0,0,1-.772-1.322c.33-4.208.638-8.417,1.2-12.6.055-.409-.009-.979.313-1.151s.632.336.935.555a20.006,20.006,0,0,0,12.077,3.648c1.261,0,1.382.1,1.228,1.293-.418,3.235-.843,6.47-1.248,9.707a1.182,1.182,0,0,1-1.027,1.161A23.819,23.819,0,0,1,22.285,191.6Z"
              transform="translate(-0.18 -0.18)"/>
        <path class="cls-3"
              d="M13.9,192.251a17.031,17.031,0,0,0,5.057,2.3,19.32,19.32,0,0,0,7.586.284c1.371-.2,1.421-.149,1.3,1.257q-.448,5.285-.86,10.573c-.045.567-.064,1.047-.839,1.113a31.7,31.7,0,0,1-11.588-.76c-.613-.176-1.049-.436-1.03-1.145.116-4.434.02-8.873.305-13.3A2.73,2.73,0,0,1,13.9,192.251Z"
              transform="translate(-0.18 -0.18)"/>
        <path class="cls-3"
              d="M29.611,219.569a10.619,10.619,0,0,1,3.226,3.227A41.555,41.555,0,0,1,38.7,240.16c.109.89.168,1.787.257,2.68a.784.784,0,0,1-.714.95c-2,.416-4.03.549-6.046.822-.579.078-.637-.317-.714-.785a55,55,0,0,0-3.741-13.351c-.372-.846-.826-1.658-1.28-2.465-.188-.335-.268-.6.086-.848,1.737-1.221,2.314-3.047,2.627-5.015C29.308,221.328,29.452,220.509,29.611,219.569Z"
              transform="translate(-0.18 -0.18)"/>
        <path class="cls-3"
              d="M13.709,209.842A25.361,25.361,0,0,0,25.574,211.5c.877-.06,1.147.2,1.085,1.093a67.989,67.989,0,0,1-1.075,9.633,2.271,2.271,0,0,1-1.795,1.885,9.124,9.124,0,0,1-8.473-1.636,3.973,3.973,0,0,1-1.616-3.337C13.731,216.08,13.709,213.026,13.709,209.842Z"
              transform="translate(-0.18 -0.18)"/>
        <path class="cls-3"
              d="M128.66,131.874q.3-7.1.6-14.191a1.325,1.325,0,0,1,1.1-1.405A92.273,92.273,0,0,0,142.2,112.32c.53-.221.723-.151.633.436a1.724,1.724,0,0,0-.053.534c.309,1.756-.573,2.632-2.109,3.3a39.282,39.282,0,0,1-7.372,2.545,3.786,3.786,0,0,0-3.119,2.956c-1.238,4.613-1.178,9.064,1.42,13.258,1.708,2.757,3.56,3.5,6.7,2.653.665-.178,1.325-.374,1.994-.539.557-.137.882.051.826.68v.09c-.095,3.821-.2,3.254-3.006,4.1s-5.667,1.519-8.536,2.137c-1.1.236-1.376-.028-1.33-1.106.163-3.832.309-7.664.462-11.5Z"
              transform="translate(-0.18 -0.18)"/>
        <path class="cls-3"
              d="M7.319,244.978c-.839,0-1.678-.013-2.517,0-.563.011-.867-.224-.821-.8.493-6.153.98-12.31,3.634-18.024A12.341,12.341,0,0,1,9.807,223c.5-.542.869-.436,1.165.165a8.854,8.854,0,0,0,3.539,3.606.877.877,0,0,1,.358,1.4,31.529,31.529,0,0,0-4.043,15.641c-.016.978-.215,1.154-1.173,1.142-.778-.009-1.556,0-2.334,0Z"
              transform="translate(-0.18 -0.18)"/>
        <path class="cls-3"
              d="M24.364,134.006a5.42,5.42,0,0,1,.2-.911,100.7,100.7,0,0,1,3.933-9.542c.532-1.073.781-1.113,1.623-.3a10.552,10.552,0,0,0,2.851,2.015,2.074,2.074,0,0,1,1.248,1.818c.557,4.791,1.14,9.58,1.719,14.368.108.889.031.976-.835.758a5.872,5.872,0,0,1-1.193-.387,36.8,36.8,0,0,1-8.63-5.777A2.75,2.75,0,0,1,24.364,134.006Z"
              transform="translate(-0.18 -0.18)"/>
        <path class="cls-3"
              d="M123.729,232.795c.045.866.074,1.733.138,2.6a.983.983,0,0,1-.755,1.148,17.81,17.81,0,0,1-10.259-.015.705.705,0,0,1-.541-.721c-.235-2.472-.5-4.941-.722-7.414-.09-1,.07-1.108,1.05-.95a18.231,18.231,0,0,0,9.893-.733c.664-.266.855,0,.886.621C123.512,229.151,123.624,230.973,123.729,232.795Z"
              transform="translate(-0.18 -0.18)"/>
        <path class="cls-3"
              d="M59.274,242.464a18.369,18.369,0,0,1-4.611-.637,1.373,1.373,0,0,1-1.141-1.641c.183-2.507.322-5.018.474-7.528.056-.92.2-1.06,1.01-.744a18.677,18.677,0,0,0,9.56.75c1.124-.156,1.321-.021,1.225,1.074-.207,2.356-.451,4.709-.672,7.063a.962.962,0,0,1-.795.94A19.534,19.534,0,0,1,59.274,242.464Z"
              transform="translate(-0.18 -0.18)"/>
        <path class="cls-4"
              d="M115.576,216.146a19.1,19.1,0,0,0-.144-2.321,3.864,3.864,0,0,1,1.778-3.775,19.629,19.629,0,0,1,2.9-1.615,105.476,105.476,0,0,0,11.065-6.127c.319-.2.657-.517,1.06-.247s.256.694.173,1.069c-.2.9-.485,1.793-.616,2.706a4.483,4.483,0,0,1-2.147,3.136c-4.273,2.973-8.509,6-12.76,9-.317.224-.646.513-1.058.312s-.224-.635-.242-.973C115.561,216.926,115.577,216.535,115.576,216.146Z"
              transform="translate(-0.18 -0.18)"/>
        <path class="cls-3"
              d="M189.766,60.7a22.744,22.744,0,0,0,8.572,5.792c1.077.445,1.082.479.61,1.577-.767,1.783-1.583,3.547-2.28,5.357-.288.75-.735.817-1.379.729a13.426,13.426,0,0,1-7.617-3.878c-2-1.924-1.991-1.919-.689-4.394.89-1.692,1.752-3.4,2.628-5.1C189.621,60.769,189.657,60.762,189.766,60.7Z"
              transform="translate(-0.18 -0.18)"/>
        <path class="cls-3"
              d="M154.18,111.159a12.533,12.533,0,0,0,8.084,9.344c-1.357,1.128-2.641,2.2-3.927,3.266-.554.46-1.148.878-1.655,1.383a1.461,1.461,0,0,1-1.944.215c-3.507-1.828-5.409-4.885-6.571-8.513a1.161,1.161,0,0,1,.436-1.358C150.423,114.083,152.241,112.667,154.18,111.159Z"
              transform="translate(-0.18 -0.18)"/>
        <path class="cls-3"
              d="M170.4,112.208c-1.694,1.793-3.244,3.417-4.77,5.062a1.538,1.538,0,0,1-1.484.386,7.823,7.823,0,0,1-5.887-3.821,24.959,24.959,0,0,1-1.9-3.959.757.757,0,0,1,.208-.96c1.807-1.622,3.466-3.392,5.234-5.314C163.093,108.047,166.224,110.586,170.4,112.208Z"
              transform="translate(-0.18 -0.18)"/>
        <path class="cls-3"
              d="M153.06,127.732a30.888,30.888,0,0,1-6.568,3.631c-.508.221-.918-.071-1.315-.362a13.488,13.488,0,0,1-4.941-7.607c-.2-.719-.34-1.456-.512-2.183a.837.837,0,0,1,.564-1.133,28.038,28.038,0,0,0,4.9-2.42c.587-.362.87-.214,1.005.418.031.145.106.281.141.426a14.3,14.3,0,0,0,6.2,8.812C152.685,127.413,152.816,127.536,153.06,127.732Z"
              transform="translate(-0.18 -0.18)"/>
        <path class="cls-3"
              d="M174.222,87.072a22.443,22.443,0,0,0,4.047,4.582,11.9,11.9,0,0,0,5.026,2.471c.692.146.651.349.3.834-1.107,1.526-2.242,3.038-3.246,4.631a1.674,1.674,0,0,1-1.946.809,10.375,10.375,0,0,1-6.887-4.158c-1.932-2.543-1.93-2.543-.139-5.095C172.3,89.825,173.224,88.5,174.222,87.072Z"
              transform="translate(-0.18 -0.18)"/>
        <path class="cls-3"
              d="M124.56,250.438q.175,4.151.348,8.313a.786.786,0,0,1-.667.827,24.1,24.1,0,0,1-8.307,1.194c-1.291-.059-1.6-.428-1.635-1.735-.056-2.127-.35-4.233-.536-6.349-.088-1,.061-1.155,1.009-1.014a15.817,15.817,0,0,0,9.546-1.246C124.364,250.406,124.432,250.431,124.56,250.438Z"
              transform="translate(-0.18 -0.18)"/>
        <path class="cls-3"
              d="M52.818,259.95c0-1.257.009-2.515,0-3.772-.005-.5.058-.74.648-.452A14.956,14.956,0,0,0,62.23,256.9c1.4-.188,1.524-.009,1.385,1.436-.193,2-.319,4-.474,6-.1,1.342-.24,1.467-1.553,1.536a23.337,23.337,0,0,1-8.151-1.054,1.094,1.094,0,0,1-.917-1.281c.053-1.194.015-2.393.015-3.59Z"
              transform="translate(-0.18 -0.18)"/>
        <path class="cls-3"
              d="M118.875,273.016c-.747,0-1.5.023-2.242-.007a1.046,1.046,0,0,1-1.118-1.117c-.183-2.235-.411-4.467-.663-6.695-.09-.8.2-1.107.985-1.059a15.63,15.63,0,0,0,8.149-1.679c.906-.458,1.1-.331,1.112.669.018,2.541.34,5.067.344,7.611a1.381,1.381,0,0,1-1.088,1.575A14.7,14.7,0,0,1,118.875,273.016Z"
              transform="translate(-0.18 -0.18)"/>
        <path class="cls-3"
              d="M52.021,274.549a38.621,38.621,0,0,0,.334-6.731c-.01-.657.35-.582.759-.359a16.778,16.778,0,0,0,7.505,1.911l.27.01c1.723.063,1.737.064,1.584,1.853-.171,2-.382,4-.552,6-.05.593-.349.812-.911.892a18.14,18.14,0,0,1-7.822-.616c-.842-.25-1.286-.685-1.176-1.609A11.4,11.4,0,0,0,52.021,274.549Z"
              transform="translate(-0.18 -0.18)"/>
        <path class="cls-3"
              d="M59.23,253.8a22.114,22.114,0,0,1-5.132-.564,1.275,1.275,0,0,1-1.125-1.556,51.4,51.4,0,0,0,.343-6.342c-.025-.99.138-1.1,1.02-.729a14.219,14.219,0,0,0,9.381.723c.821-.217,1,.033.922.806-.208,2.113-.392,4.228-.537,6.346-.048.7-.5.823-1.012.908A23.139,23.139,0,0,1,59.23,253.8Z"
              transform="translate(-0.18 -0.18)"/>
        <path class="cls-3"
              d="M123.931,239.106a5.114,5.114,0,0,1,.226,1.839c.1,1.884.125,3.772.248,5.654a1.2,1.2,0,0,1-1.073,1.453,21.762,21.762,0,0,1-9.182.136.9.9,0,0,1-.845-.882c-.177-2.179-.362-4.357-.542-6.535-.039-.479.133-.8.665-.654A15.131,15.131,0,0,0,123.931,239.106Z"
              transform="translate(-0.18 -0.18)"/>
        <path class="cls-3"
              d="M185.226,91.4a10.951,10.951,0,0,1-6.56-3.035,29.1,29.1,0,0,1-2.471-2.605,1.173,1.173,0,0,1-.084-1.614c1-1.49,1.968-3,2.946-4.51.553-.852.579-.872,1.123-.05A11.693,11.693,0,0,0,187.1,84.53c.663.18,1.341.3,2.013.453.592.132.732.449.4.966q-1.6,2.494-3.2,4.988A1.113,1.113,0,0,1,185.226,91.4Z"
              transform="translate(-0.18 -0.18)"/>
        <path class="cls-3"
              d="M177.4,103.5c-1.467,2.122-3.019,3.945-4.545,5.788a.863.863,0,0,1-.977.251,11.947,11.947,0,0,1-8.319-7.176.819.819,0,0,1,.07-.923l4.011-4.987C169.782,100.338,172.768,102.971,177.4,103.5Z"
              transform="translate(-0.18 -0.18)"/>
        <path class="cls-3"
              d="M125.819,278.985c0,1.287-.024,2.575.01,3.862a1.186,1.186,0,0,1-.915,1.334,16.836,16.836,0,0,1-7.219,1.02c-.755-.086-1.122-.408-1.172-1.175q-.225-3.446-.5-6.889c-.056-.7.273-.869.906-.845a14.328,14.328,0,0,0,6.081-.858,14.817,14.817,0,0,0,1.913-.976c.739-.435.891-.353.9.486C125.827,276.291,125.819,277.638,125.819,278.985Z"
              transform="translate(-0.18 -0.18)"/>
        <path class="cls-3"
              d="M51.869,285.8c0-1.944.01-3.889-.007-5.833,0-.531.061-.74.62-.385a12.61,12.61,0,0,0,7.9,1.839c.748-.054,1.112.163,1.037,1-.208,2.325-.382,4.653-.536,6.982a.884.884,0,0,1-.868.939,16.2,16.2,0,0,1-7.828-1.129.949.949,0,0,1-.613-1.077c.046-.776.081-1.553.12-2.33Z"
              transform="translate(-0.18 -0.18)"/>
        <path class="cls-3"
              d="M126.1,289.17c0,1.554.01,3.108,0,4.662-.021,2.511-2.1,4.329-4.956,4.349a4.27,4.27,0,0,1-4.113-4.17c-.069-1.555-.112-3.112-.215-4.665-.051-.769.148-1.1.995-1a12.948,12.948,0,0,0,7.427-1.208c.564-.279.761-.081.737.505-.021.509,0,1.019,0,1.529Z"
              transform="translate(-0.18 -0.18)"/>
        <path class="cls-3"
              d="M56.169,303.319a6.152,6.152,0,0,1-3.471-1.29,3.43,3.43,0,0,1-1.416-2.851c-.032-2.119.332-4.221.2-6.34-.038-.611.254-.75.774-.508a12.7,12.7,0,0,0,7.685,1.112c.488-.085.757.169.7.667-.208,1.844-.029,3.712-.339,5.546A4.011,4.011,0,0,1,56.169,303.319Z"
              transform="translate(-0.18 -0.18)"/>
        <path class="cls-3"
              d="M184.591,70.429a17.517,17.517,0,0,0,5.3,5.118,9.356,9.356,0,0,0,3.678,1.355c1.09.139,1.183.39.623,1.309-.607,1-1.189,2.008-1.785,3.012a1.729,1.729,0,0,1-1.719.9,11.284,11.284,0,0,1-9.26-4.865c-.245-.348-.487-.678-.209-1.141C182.327,74.265,183.419,72.409,184.591,70.429Z"
              transform="translate(-0.18 -0.18)"/>
        <path class="cls-3"
              d="M78.8,94.877c0-.659.019-1.318,0-1.976-.031-.864.076-.961.9-.6A15.444,15.444,0,0,0,87.3,93.608,16.289,16.289,0,0,0,90.467,93c.648-.189.894.049.9.685.007,1.438.037,2.875.042,4.313,0,.711-.184,1.319-1.007,1.472a19.337,19.337,0,0,1-9.931-.269,1.982,1.982,0,0,1-1.586-2.074c.006-.748,0-1.5,0-2.245Z"
              transform="translate(-0.18 -0.18)"/>
        <path class="cls-2"
              d="M60.134,229.852a17.85,17.85,0,0,1-5.036-.7.823.823,0,0,1-.73-.95q.175-2.814.344-5.629c.023-.381.171-.64.586-.642a5.674,5.674,0,0,1,2.481.212,16.824,16.824,0,0,0,7.859,1.416c1.262-.056,1.406.168,1.2,1.393-.169,1-.307,2.005-.4,3.014a1.313,1.313,0,0,1-1.237,1.377A31.6,31.6,0,0,1,60.134,229.852Z"
              transform="translate(-0.18 -0.18)"/>
        <path class="cls-3"
              d="M116.792,76.951c0-1.709.017-3.419-.009-5.128a1.215,1.215,0,0,1,.762-1.274c1.542-.73,3.06-1.509,4.59-2.264.917-.452,1.114-.342,1.162.638.155,3.141.293,6.282.477,9.421a1.262,1.262,0,0,1-.741,1.367c-1.743.93-3.457,1.912-5.189,2.863-.863.474-1.048.367-1.051-.584C116.789,80.31,116.792,78.63,116.792,76.951Z"
              transform="translate(-0.18 -0.18)"/>
        <path class="cls-3"
              d="M142.707,132.837a38.919,38.919,0,0,1-6.317,1.989,1.494,1.494,0,0,1-1.532-.732,9.692,9.692,0,0,1-1.968-5.134,18.515,18.515,0,0,1,.307-5.369,3.664,3.664,0,0,1,3.429-2.538c.379.034.653.14.7.633a17.02,17.02,0,0,0,5.255,10.934A1.248,1.248,0,0,1,142.707,132.837Z"
              transform="translate(-0.18 -0.18)"/>
        <path class="cls-3"
              d="M201.058,61.492c-.069,2.754-.577,3.072-3.1,1.962a23.454,23.454,0,0,1-6.3-4.075c-.968-.872-1.008-1.179-.442-2.324.476-.964.893-1.957,1.368-2.921a1.545,1.545,0,0,1,2.429-.792,13.408,13.408,0,0,1,5.96,6.821,2.092,2.092,0,0,1,.107.7C201.093,61.072,201.066,61.283,201.058,61.492Z"
              transform="translate(-0.18 -0.18)"/>
        <path class="cls-3"
              d="M85.576,90.794a18.692,18.692,0,0,1-5.726-.981A2.552,2.552,0,0,1,78.779,86.5c.24-.372.626-.346.968-.329,3.559.184,7.117.388,10.675.582.583.032.835.324.872.912.138,2.2.03,2.343-2.147,2.752A26.176,26.176,0,0,1,85.576,90.794Z"
              transform="translate(-0.18 -0.18)"/>
        <path class="cls-4"
              d="M40.494,13.517c-1.971-.006-2.67-.729-2.691-2.733a4.861,4.861,0,0,1,4.868-4.962c2.022-.076,3.342,1.933,2.783,4.084A4.832,4.832,0,0,1,40.494,13.517Z"
              transform="translate(-0.18 -0.18)"/>
        <path class="cls-3"
              d="M84.74,106.58a12.322,12.322,0,0,1-4.342-.564,1.665,1.665,0,0,1-1.364-1.83,14.434,14.434,0,0,0-.145-1.608c-.054-.948.44-1.327,1.27-.919,3.147,1.55,6.44,1.368,9.753.838,1.463-.234,1.551-.214,1.527,1.256-.03,1.829-.185,2.049-1.969,2.372A20.8,20.8,0,0,1,84.74,106.58Z"
              transform="translate(-0.18 -0.18)"/>
        <path class="cls-4"
              d="M228.77,30.291c-.052.342-.112.665-.149.99-.237,2.067-.841,2.441-2.87,1.83A19.176,19.176,0,0,0,222.067,32c-.511-.049-.659-.448-.54-.94.374-1.539.756-3.076,1.11-4.62.132-.578.5-.652.941-.469a27.357,27.357,0,0,1,4.552,2.521C228.745,28.9,228.635,29.665,228.77,30.291Z"
              transform="translate(-0.18 -0.18)"/>
        <path class="cls-4"
              d="M201.624,25.037c-.114.407-.45.322-.737.324-2.3.022-4.575-.414-6.871-.522-.564-.027-.614-.446-.505-.841.277-1.007.591-2,.927-2.993.147-.434.553-.484.964-.5a18.453,18.453,0,0,1,4.221.706,1.83,1.83,0,0,0,1.232.4,1.309,1.309,0,0,1,1.181,1.714C201.934,23.9,201.478,24.4,201.624,25.037Z"
              transform="translate(-0.18 -0.18)"/>
        <path class="cls-4"
              d="M5.12,246.978c1.661.145,3.288.577,4.972.561.578-.006.734.493.661.97a23.143,23.143,0,0,0-.159,2.32c-.052.976-.561,1.284-1.542,1.231a17.615,17.615,0,0,0-3.653-.135c-1.225.185-1.645-.253-1.628-1.465.011-.747-.005-1.495.014-2.242C3.81,247.252,4.147,246.949,5.12,246.978Z"
              transform="translate(-0.18 -0.18)"/>
        <path class="cls-2"
              d="M116.991,224.644a23.1,23.1,0,0,1-4.986-.462c-.36-.068-.983-.051-.88-.656.091-.533.624-.335.984-.32a17.583,17.583,0,0,0,3.66.075c1.781-.3,3.006-1.544,4.419-2.472.625-.411,1.228-.854,1.84-1.284.518-.364.836-.251.89.4.079.952.1,1.91.218,2.857.1.807-.286,1.154-.992,1.315A20.25,20.25,0,0,1,116.991,224.644Z"
              transform="translate(-0.18 -0.18)"/>
        <path class="cls-4"
              d="M38,246.582c.7-.1,1.244-.056,1.359.848.12.933-.1,1.536-.913,1.8a22.223,22.223,0,0,1-4.816.974,1.177,1.177,0,0,1-1.425-1.109c-.023-.117-.051-.234-.075-.351-.253-1.271-.079-1.8,1.233-1.86A25.558,25.558,0,0,0,38,246.582Z"
              transform="translate(-0.18 -0.18)"/>
        <path class="cls-3"
              d="M33.578,116.518c0,1.737,0,3.281,0,4.826,0,.412-.222.341-.463.194-.587-.357-1.181-.7-1.755-1.08a.715.715,0,0,1-.333-1A8.888,8.888,0,0,1,33.578,116.518Z"
              transform="translate(-0.18 -0.18)"/>
        <path class="cls-5"
              d="M201.624,25.037c-.147-.637.31-1.132.411-1.717a1.309,1.309,0,0,0-1.181-1.714,1.83,1.83,0,0,1-1.232-.4,2.335,2.335,0,0,1,2.894.777A2.514,2.514,0,0,1,201.624,25.037Z"
              transform="translate(-0.18 -0.18)"/>
        <path class="cls-3" d="M46.724,12.545c.146.716.055,1.24-.876,1.086A3.372,3.372,0,0,1,46.724,12.545Z"
              transform="translate(-0.18 -0.18)"/>
        <path class="cls-3" d="M47.291,11.474c-.187.35.548,1.176-.546,1.057A1.373,1.373,0,0,1,47.291,11.474Z"
              transform="translate(-0.18 -0.18)"/>
        <polygon class="cls-2" points="71.092 312.473 71.166 312.249 71.226 312.297 71.106 312.485 71.092 312.473"/>
        <path class="cls-1"
              d="M89.977,189.332c-1.98,0-3.961-.061-5.938.012-4.363.161-8.718.521-13.088.541a81.961,81.961,0,0,1-10.417-.332c-2.311-.284-3.257-1.091-3.685-3.346-1.167-6.154-2.034-12.354-2.681-18.583-.846-8.135-1.654-16.274-2.475-24.411a74.318,74.318,0,0,1-.236-8.176,1.962,1.962,0,0,1,2.015-1.989,23.125,23.125,0,0,1,2.424-.1c7.287.027,14.576-.014,21.86.129a121.949,121.949,0,0,1,15.335.837,40,40,0,0,1,4.656.967,3.589,3.589,0,0,1,2.853,3.57c.121,1.884.287,3.766.365,5.651.035.851.321,1.262,1.217,1.278a13.779,13.779,0,0,1,2.227.27,2.473,2.473,0,0,1,2.348,2.6c.245,2.6.208,5.21.266,7.816.014.629.058,1.259.045,1.887a2.831,2.831,0,0,1-2.723,3c-.693.106-1.6-.261-2.034.356-.369.527-.033,1.339-.043,2.025-.008.54-.037,1.08-.017,1.619.022.591.313.876.941.738.409-.09.826-.15,1.241-.2,1.835-.235,2.853.592,3.023,2.445.225,2.45.25,4.908.259,7.365a29.97,29.97,0,0,1-.014,3.949,3.109,3.109,0,0,1-2.764,3.062c-.322.069-.651.106-.971.18-1.211.283-1.542.736-1.51,1.948a11.525,11.525,0,0,1-.072,1.791c-.288,2.19-1.4,3.088-3.859,3.1C95.675,189.347,92.826,189.332,89.977,189.332Zm9.2-13.89c-.136-5.175-.225-9.64-.378-14.1-.249-7.249-1.027-14.464-1.427-21.7a1.68,1.68,0,0,0-1.585-1.761,54.177,54.177,0,0,0-9-1.077c-4.732-.206-9.466-.359-14.2-.375-5.908-.021-11.816-.064-17.724-.078-1.414,0-1.886.6-1.678,1.994.293,1.955.553,3.916.864,5.868,1.476,9.261,2.669,18.561,3.924,27.852.581,4.3,1.245,8.6,2.111,12.855a1.345,1.345,0,0,0,1.4,1.222c1.586.123,3.171.192,4.761.194,5.426.005,10.847-.225,16.271-.346,4.767-.106,9.536-.09,14.3-.12,2.093-.013,2.363-.279,2.364-2.4C99.18,180.551,99.179,177.641,99.179,175.442Zm4.938-22.277h-.052c0-1.047.018-2.094,0-3.14-.038-1.8-.472-2.245-2.241-2.451-.46-.053-.628,0-.586.545.242,3.126.438,6.256.648,9.385.012.177-.015.458.168.461a6.585,6.585,0,0,0,1.677-.127c.468-.117.384-.62.387-1C104.124,155.616,104.118,154.391,104.118,153.165Zm.2,20.125h.048c0-1.587,0-3.174,0-4.761,0-1.087-.829-.88-1.486-.928-.765-.056-.545.482-.574.913-.213,3.137.28,6.262.143,9.4-.01.239-.012.479-.013.718,0,.286.133.42.429.458.927.119,1.443-.287,1.452-1.217C104.332,176.343,104.321,174.817,104.321,173.29Z"
              transform="translate(-0.18 -0.18)"/>
        <path class="cls-1"
              d="M82.824,74.177a37.674,37.674,0,0,1-15.649-2.535,31.8,31.8,0,0,1-6.023-3.184c-4.235-2.856-5.269-9.413-1.581-13.944a4.429,4.429,0,0,1,5.343-1A10.981,10.981,0,0,1,67.6,55.3,17.282,17.282,0,0,0,77.849,59.4a34.531,34.531,0,0,0,14.939-1.913,13.344,13.344,0,0,1,6.68-.981,8.956,8.956,0,0,1,7.312,7.008c.478,3.018-.9,5.223-3.327,6.846a20.578,20.578,0,0,1-7.649,2.72A59.531,59.531,0,0,1,82.824,74.177Zm-19.887-18.1a1.788,1.788,0,0,0-1.6,1c-1.434,2.458-1.7,6.814,1.662,9.071.818.549,1.674,1.045,2.532,1.531.77.437.967.319,1.07-.579a13.862,13.862,0,0,1,2.2-6.741c.18-.25.284-.476-.065-.659-1.633-.85-2.931-2.172-4.464-3.162A2.719,2.719,0,0,0,62.937,56.073ZM98.1,59.192c-1.2-.015-1.345.124-1.474,1.345a21.762,21.762,0,0,1-.285,2.226,10.87,10.87,0,0,0,.807,6.393c.12.3.218.575.623.447a12.137,12.137,0,0,0,4.94-2.43,3.605,3.605,0,0,0,.962-4.1A6.353,6.353,0,0,0,98.1,59.192Zm-3.554.827c-2.181.6-4.195,1.17-6.217,1.707-.487.129-.583.471-.622.867-.114,1.162-.271,2.324-.3,3.489a8.322,8.322,0,0,0,1,4.324,1.032,1.032,0,0,0,1.141.665c1.42-.223,2.841-.447,4.268-.615.764-.09.911-.361.564-1.046a9.029,9.029,0,0,1-.817-4.98A26.236,26.236,0,0,1,94.546,60.019ZM77.007,61.955c-1.82-.349-3.533-.621-5.215-1.023a1.2,1.2,0,0,0-1.639.868,21.536,21.536,0,0,0-1.3,6.742c-.039.537.3.727.716.876a24.724,24.724,0,0,0,4.316,1.166,10.985,10.985,0,0,0,2.7.294A9.156,9.156,0,0,1,77.007,61.955Zm9.052.146a31.272,31.272,0,0,1-5.728.173,1.17,1.17,0,0,0-1.23.809,8.859,8.859,0,0,0,.237,7.628.648.648,0,0,0,.588.469q2.648.057,5.3.092c.4.005.521-.2.389-.587a14.337,14.337,0,0,1-.482-1.627C84.629,66.676,85.271,64.435,86.06,62.1Z"
              transform="translate(-0.18 -0.18)"/>
        <path class="cls-1"
              d="M88.228,35.547a9.922,9.922,0,0,1,7.5-9.764c5.481-1.458,10.3,1.289,11.547,6.851a9.488,9.488,0,0,1-8.725,11.68,11.721,11.721,0,0,1-4.007-.309A8.343,8.343,0,0,1,88.228,35.547Zm9.546,6.015a8.112,8.112,0,0,0,4.564-1.519,5.824,5.824,0,0,0,.7-9.3A8.339,8.339,0,0,0,99.5,28.693c-3.271-.943-5.254-.788-7.359,3.014C89.423,36.611,92.185,41.567,97.773,41.562Z"
              transform="translate(-0.18 -0.18)"/>
        <path class="cls-1"
              d="M67.9,41.069a8.074,8.074,0,0,1-8.277-7.481A10.912,10.912,0,0,1,68.1,21.9c3.863-.693,8.725.888,9.884,5.672C79.465,33.694,75.578,40.939,67.9,41.069ZM69.264,24.81c-5.523.1-7.823,4.244-7.027,8.825a5.627,5.627,0,0,0,5.86,4.851,7.838,7.838,0,0,0,7.169-6.578C75.964,27.7,73.523,24.809,69.264,24.81Z"
              transform="translate(-0.18 -0.18)"/>
        <path class="cls-3"
              d="M99.179,175.442c0,2.2,0,5.109,0,8.018,0,2.124-.271,2.39-2.364,2.4-4.768.03-9.537.015-14.3.12-5.423.12-10.844.351-16.271.346-1.59,0-3.175-.071-4.761-.194a1.345,1.345,0,0,1-1.4-1.222c-.866-4.259-1.529-8.551-2.111-12.855-1.255-9.292-2.448-18.592-3.924-27.852-.311-1.952-.571-3.913-.864-5.868-.208-1.389.264-2,1.678-1.994,5.908.013,11.816.057,17.724.078,4.737.017,9.471.169,14.2.375a54.177,54.177,0,0,1,9,1.077,1.68,1.68,0,0,1,1.585,1.761c.4,7.24,1.178,14.455,1.427,21.7C98.954,165.8,99.043,170.268,99.179,175.442Zm-32.593-9.231a5.885,5.885,0,0,0-4.271,1.584c-3.333,3.175-3.3,9.37.072,12.781a5.986,5.986,0,0,0,7.646.856,11.132,11.132,0,0,0,4.631-10.879A5.525,5.525,0,0,0,67.9,166.1,2.565,2.565,0,0,1,66.586,166.211Zm-2.2-24.834A7.455,7.455,0,0,0,56.96,149c-.044,4.268,3.888,8.507,7.905,8.525,4.248.019,7.823-3.883,7.826-8.542C72.7,144.261,69.556,141.386,64.386,141.378Z"
              transform="translate(-0.18 -0.18)"/>
        <path class="cls-3"
              d="M104.118,153.165c0,1.225.006,2.45,0,3.676,0,.378.082.881-.387,1a6.585,6.585,0,0,1-1.677.127c-.183,0-.156-.284-.168-.461-.21-3.129-.406-6.259-.648-9.385-.042-.545.126-.6.586-.545,1.769.205,2.2.653,2.241,2.451.022,1.046,0,2.093,0,3.14Z"
              transform="translate(-0.18 -0.18)"/>
        <path class="cls-3"
              d="M104.321,173.29c0,1.526.011,3.053,0,4.579-.009.93-.525,1.336-1.452,1.217-.3-.038-.43-.172-.429-.458,0-.239,0-.479.013-.718.138-3.135-.355-6.26-.143-9.4.029-.431-.191-.969.574-.913.658.048,1.483-.158,1.486.928.005,1.587,0,3.174,0,4.761Z"
              transform="translate(-0.18 -0.18)"/>
        <path class="cls-1"
              d="M66.586,166.211A2.565,2.565,0,0,0,67.9,166.1a5.525,5.525,0,0,1,6.762,4.455,11.132,11.132,0,0,1-4.631,10.879,5.986,5.986,0,0,1-7.646-.856c-3.37-3.412-3.4-9.607-.072-12.781A5.885,5.885,0,0,1,66.586,166.211Zm2.546,11.818a5.008,5.008,0,0,0,2.333-4.323c0-.808.012-1.615.007-2.423a1.681,1.681,0,0,0-.936-1.53,10.386,10.386,0,0,0-2.635-1.11,3.393,3.393,0,0,0-3.826,1.46c-1.613,2.317-1.424,4.713-.289,7.14A3.08,3.08,0,0,0,69.132,178.029Z"
              transform="translate(-0.18 -0.18)"/>
        <path class="cls-1"
              d="M64.386,141.378c5.17.008,8.309,2.883,8.306,7.609,0,4.659-3.578,8.561-7.826,8.542-4.018-.018-7.949-4.257-7.905-8.525A7.455,7.455,0,0,1,64.386,141.378Zm-4.432,5.876-.057.32a1.9,1.9,0,0,0,0,2.571c.346,2.026,2.706,4.217,4.628,4.3a5.086,5.086,0,0,0,4.951-4.341,4.733,4.733,0,0,0-1.928-5.037,16.891,16.891,0,0,1-2.455-1.431,1.231,1.231,0,0,0-1.208-.152A4.836,4.836,0,0,0,60.4,146.3C59.89,146.447,59.926,146.852,59.954,147.254Z"
              transform="translate(-0.18 -0.18)"/>
        <path class="cls-1"
              d="M100.289,34.614c.006,1.552-1.058,2.459-2.716,2.645a1.619,1.619,0,0,1-1.91-1.445,2.368,2.368,0,0,1,.947-2.37,2.208,2.208,0,0,1,2.5-.354A1.873,1.873,0,0,1,100.289,34.614Z"
              transform="translate(-0.18 -0.18)"/>
        <path class="cls-1"
              d="M68.807,33.48c-1.216.009-1.85-.512-1.874-1.542a2.061,2.061,0,0,1,2.189-2.089,1.969,1.969,0,0,1,2.157,1.9C71.283,32.825,70.367,33.468,68.807,33.48Z"
              transform="translate(-0.18 -0.18)"/>
        <path class="cls-4"
              d="M69.132,178.029a3.08,3.08,0,0,1-5.345-.786c-1.135-2.427-1.324-4.823.289-7.14a3.393,3.393,0,0,1,3.826-1.46,10.386,10.386,0,0,1,2.635,1.11,1.681,1.681,0,0,1,.936,1.53c0,.808,0,1.615-.007,2.423-.429.01-.476.316-.582.649-.14.442-.012.978-.42,1.326A5.691,5.691,0,0,0,69.132,178.029Z"
              transform="translate(-0.18 -0.18)"/>
        <path class="cls-5"
              d="M69.132,178.029a5.691,5.691,0,0,1,1.332-2.348c.408-.349.28-.885.42-1.326.105-.333.153-.639.582-.649A5.008,5.008,0,0,1,69.132,178.029Z"
              transform="translate(-0.18 -0.18)"/>
        <path class="cls-4"
              d="M59.9,147.574l.057-.32c.581-.114.575-.505.45-.953a4.836,4.836,0,0,1,3.482-2.819,1.231,1.231,0,0,1,1.208.152,16.891,16.891,0,0,0,2.455,1.431,4.733,4.733,0,0,1,1.928,5.037,5.086,5.086,0,0,1-4.951,4.341c-1.922-.08-4.282-2.271-4.628-4.3A13.977,13.977,0,0,0,59.9,147.574Z"
              transform="translate(-0.18 -0.18)"/>
        <path class="cls-5" d="M59.9,147.574a13.977,13.977,0,0,1,0,2.571A1.9,1.9,0,0,1,59.9,147.574Z"
              transform="translate(-0.18 -0.18)"/>
        <path class="cls-5" d="M60.4,146.3c.125.448.131.839-.45.953C59.926,146.852,59.89,146.447,60.4,146.3Z"
              transform="translate(-0.18 -0.18)"/>
    </g>
</svg>
